<svg xmlns="http://www.w3.org/2000/svg" xml:space="preserve" style="fill-rule:evenodd;clip-rule:evenodd;stroke-linejoin:round;stroke-miterlimit:2" viewBox="0 0 4267 4267">
  <path d="M1698 1025c31 26 48 49 60 88l3 12a4151 4151 0 0 1 42 136l23 74a49633 49633 0 0 1 95 307l91 290 4 13 13 41 12 40a853966 853966 0 0 0 153 490l23 73 15 46 4 13 8 24c5 17 29 72 27 84a87682 87682 0 0 0 117-367l49-152a18338 18338 0 0 1 26-84c28-87 28-87 63-110 27-11 52-11 82-11l18-1 62-1h42c164-2 327 1 490 5a74042 74042 0 0 0-4-231v-38l-1-16c0-13-2-25-6-38l-30-16c-60-31-109-76-133-141a321 321 0 0 1 28-276l5-12c33-59 116-93 177-111 76-18 153-2 220 37 67 44 114 112 131 191 15 92-5 169-58 244-35 43-77 67-129 84v12a72131 72131 0 0 1 5 230v20l1 19v17c0 13 0 13-6 25a5445 5445 0 0 0 158 1c74 5 74 5 140-21 11-16 17-32 24-50 49-61 115-94 192-105 91-6 168 18 239 77a292 292 0 0 1 13 417 300 300 0 0 1-428-1c-24-25-57-65-57-101l-18 6a403 403 0 0 1-42-1h-35a23690 23690 0 0 1-186-5v13a77933 77933 0 0 1 5 255v23l1 21v18c0 16 0 16-6 33 19 4 74 35 82 41 53 41 91 99 105 164 6 58 8 123-17 176l-9 18c-39 73-96 116-173 146a300 300 0 0 1-375-211c-13-77-5-158 38-224 40-55 82-85 144-116l5-357-539 6-108 324-9 29a334840 334840 0 0 0-171 518l-6 20-20 53c-13 26-29 40-55 52-40 6-72 6-106-17-25-22-36-40-47-71 0-5-15-34-17-47-5-26-13-47-24-70l-11-42c-6-26-13-52-22-78l-4-13-18-56-13-42-4-13c-6-17-25-67-29-84-11-48-27-94-43-141a32324 32324 0 0 1-37-117l-4-13a4386 4386 0 0 0-47-151l-7-21-33-101-13-42-13-42-7-22a69022 69022 0 0 1-144-455l-5-15c-3-12-23-64-26-82-18 41-32 83-45 126l-6 20-12 41-30 99a78548 78548 0 0 0-88 287l-10 35-5 17a20047 20047 0 0 0-56 183c-36 121-36 121-68 141l-11 7c-24 13-48 12-75 12h-64a105200 105200 0 0 0-600 1 59875 59875 0 0 1-446 1h-14c-30 0-47-7-71-26-30-33-38-57-37-101 4-32 16-54 39-77 31-19 60-23 96-23h57a37275 37275 0 0 0 118 0h90a119247 119247 0 0 1 763 2l3-12 27-90 4-11 11-38 8-26a886774 886774 0 0 1 38-125l17-55 8-25a114163 114163 0 0 1 31-104l7-20 6-18 17-49c15-40 20-82 33-122l21-67 5-15 41-135 7-22a38749 38749 0 0 0 46-152l5-19c32-104 32-104 69-132 43-22 88-24 131-2Zm1532 345c-24 36-27 65-21 108 11 32 33 55 62 71 30 11 61 11 91 1 28-15 51-36 62-67 10-32 9-61-4-93-19-31-41-48-77-59-45-6-81 5-113 39Zm661 702c-23 27-36 55-34 91 6 33 22 67 50 86 38 19 74 20 115 8 34-20 54-42 63-80 5-33 1-60-15-89-22-26-44-46-79-48-42-1-67 4-100 32Zm-664 743c-23 31-21 62-18 99 10 32 31 52 58 71 33 10 70 12 102 0 27-15 48-35 57-65 5-41 6-79-20-114-28-27-55-34-93-35-39 1-60 15-86 44Z" style="fill:#191919;fill-rule:nonzero"/>
</svg>
